<svg width="24" height="24" viewBox="0 0 24 24" fill="none" xmlns="http://www.w3.org/2000/svg"><path fill-rule="evenodd" clip-rule="evenodd" d="M9.114 2.45242C10.6856 1.91205 12.3881 1.85437 13.9938 2.28676C15.5996 2.71919 17.0351 3.62212 18.1049 4.87827C19.1751 6.13475 19.8274 7.68401 19.9703 9.31822C20.1131 10.9525 19.7391 12.5888 18.9011 14.0061C18.0634 15.4232 16.8034 16.5517 15.2941 17.2438C13.8504 17.906 12.2425 18.1396 10.6686 17.9196L12.581 20.5378C12.7011 20.7643 12.7316 21.0246 12.6671 21.2709C12.6025 21.5172 12.4471 21.733 12.2294 21.8787C12.0117 22.0243 11.7464 22.09 11.4821 22.0638C11.2178 22.0375 10.9722 21.921 10.7906 21.7357L7.20872 16.8478C7.04536 16.6201 6.98196 16.3402 7.03213 16.0683C7.08231 15.7964 7.24206 15.5541 7.47709 15.3935L12.5925 11.9709C12.8296 11.8562 13.102 11.827 13.3597 11.8887C13.6175 11.9504 13.8433 12.0989 13.9957 12.3068C14.1482 12.5148 14.2169 12.7684 14.1895 13.0209C14.162 13.2735 14.0401 13.5081 13.8462 13.6817L13.857 13.6835L10.5389 15.9036C10.6188 15.8972 10.7007 15.9004 10.7833 15.9141C12.0323 16.1217 13.3159 15.9508 14.4604 15.4259C15.6046 14.9011 16.5524 14.0491 17.1795 12.9883C17.8064 11.9279 18.0841 10.7081 17.9778 9.49236C17.8716 8.27656 17.386 7.11864 16.5823 6.17504C15.7784 5.23111 14.6943 4.54664 13.4738 4.21796C12.253 3.88924 10.9581 3.93327 9.76431 4.34374C8.57074 4.75413 7.53884 5.5099 6.80476 6.50513C6.47693 6.94959 5.85086 7.04413 5.4064 6.7163C4.96195 6.38847 4.8674 5.7624 5.19523 5.31794C6.17368 3.99141 7.54223 2.99285 9.114 2.45242Z" fill="black"/></svg>
