<svg xmlns="http://www.w3.org/2000/svg" width="24" height="24" fill="none">
  <path fill="#000" fill-rule="evenodd" d="M9.11395 2.45242c1.57155-.54037 3.27405-.59805 4.87975-.16566 1.6058.43243 3.0413 1.33536 4.1111 2.59151 1.0702 1.25648 1.7225 2.80574 1.8654 4.43995.1428 1.63428-.2312 3.27058-1.0692 4.68788-.8377 1.4171-2.0977 2.5456-3.607 3.2377-1.4437.6622-3.0516.8958-4.6255.6758l1.9124 2.6182c.1201.2265.1506.4868.0861.7331-.0646.2463-.22.4621-.4377.6078-.2177.1456-.483.2113-.7473.1851-.2643-.0263-.5099-.1428-.6915-.3281l-3.58184-4.8879c-.16336-.2277-.22676-.5076-.17659-.7795.05018-.2719.20993-.5142.44496-.6748l5.11537-3.4226c.2371-.1147.5095-.1439.7672-.0822.2578.0617.4836.2102.636.4181.1525.208.2212.4616.1938.7141-.0275.2526-.1494.4872-.3433.6608l.0108.0018-3.3181 2.2201c.0799-.0064.1618-.0032.2444.0105 1.249.2076 2.5326.0367 3.6771-.4882 1.1442-.5248 2.092-1.3768 2.7191-2.4376.6269-1.0604.9046-2.2802.7983-3.49594-.1062-1.2158-.5918-2.37372-1.3955-3.31732-.8039-.94393-1.888-1.6284-3.1085-1.95708-1.2208-.32872-2.5157-.28469-3.70945.12578-1.19357.41039-2.22547 1.16616-2.95955 2.16139-.32783.44446-.9539.539-1.39836.21117-.44445-.32783-.539-.9539-.21117-1.39836.97845-1.32653 2.34701-2.32509 3.91878-2.86552z" clip-rule="evenodd"/>
</svg>