<svg width="24" height="24" viewBox="0 0 24 24" fill="none" xmlns="http://www.w3.org/2000/svg">
<path d="M18 14.97C18 14.21 17.7 13.46 17.12 12.87L14.12 9.87001C13.5575 9.30821 12.795 8.99265 12 8.99265C11.205 8.99265 10.4425 9.30821 9.88005 9.87001L6.88005 12.87C6.6002 13.1495 6.37838 13.4816 6.22735 13.8471C6.07633 14.2127 5.99908 14.6045 6.00005 15C5.02249 15.0043 4.07719 14.6506 3.34269 14.0055C2.6082 13.3604 2.13537 12.4686 2.01351 11.4987C1.89165 10.5287 2.1292 9.54774 2.6813 8.741C3.23339 7.93426 4.0618 7.35762 5.01005 7.12001C5.09688 5.79803 5.65796 4.55181 6.59017 3.61045C7.52237 2.66908 8.76305 2.09584 10.0841 1.99609C11.4052 1.89634 12.7179 2.27679 13.7809 3.06751C14.8438 3.85822 15.5857 5.00606 15.87 6.30001C16.5524 6.03228 17.2899 5.93567 18.0181 6.0186C18.7464 6.10153 19.4433 6.36149 20.0479 6.77577C20.6526 7.19005 21.1466 7.74606 21.4869 8.39525C21.8272 9.04443 22.0034 9.76706 22 10.5C21.9995 11.6065 21.5913 12.6741 20.8534 13.4987C20.1156 14.3233 19.0997 14.8471 18 14.97Z" fill="#ACE1FF"/>
<path d="M11 14.41V21C11 21.2652 11.1053 21.5196 11.2929 21.7071C11.4804 21.8947 11.7348 22 12 22C12.2652 22 12.5196 21.8947 12.7071 21.7071C12.8946 21.5196 13 21.2652 13 21V14.41L14.3 15.71C14.4924 15.8726 14.7392 15.9565 14.9908 15.945C15.2425 15.9336 15.4805 15.8275 15.6574 15.6482C15.8343 15.4688 15.9369 15.2292 15.9448 14.9774C15.9527 14.7256 15.8653 14.4801 15.7 14.29L12.7 11.29C12.5131 11.1068 12.2617 11.0042 12 11.0042C11.7382 11.0042 11.4869 11.1068 11.3 11.29L8.29999 14.29C8.13471 14.4801 8.04728 14.7256 8.05518 14.9774C8.06308 15.2292 8.16572 15.4688 8.34258 15.6482C8.51945 15.8275 8.75751 15.9336 9.00917 15.945C9.26083 15.9565 9.50754 15.8726 9.69999 15.71L11 14.41Z" fill="black"/>
</svg>
