<svg width="24" height="24" viewBox="0 0 24 24" fill="none" xmlns="http://www.w3.org/2000/svg">
<path d="M6.80003 3.45003C7.67003 2.93003 8.62003 2.53003 9.63003 2.28003C9.79674 2.77658 10.1152 3.20823 10.5404 3.51403C10.9657 3.81984 11.4762 3.98435 12 3.98435C12.5238 3.98435 13.0344 3.81984 13.4596 3.51403C13.8849 3.20823 14.2033 2.77658 14.37 2.28003C15.38 2.53003 16.33 2.93003 17.19 3.45003C16.9519 3.92011 16.8683 4.45344 16.9513 4.97383C17.0344 5.49423 17.2797 5.97508 17.6524 6.34771C18.025 6.72034 18.5058 6.96568 19.0262 7.04871C19.5466 7.13174 20.0799 7.0482 20.55 6.81003C21.07 7.67003 21.47 8.61003 21.72 9.63003C21.2235 9.79674 20.7918 10.1152 20.486 10.5404C20.1802 10.9657 20.0157 11.4762 20.0157 12C20.0157 12.5238 20.1802 13.0344 20.486 13.4596C20.7918 13.8849 21.2235 14.2033 21.72 14.37C21.47 15.38 21.07 16.33 20.55 17.19C20.0799 16.9519 19.5466 16.8683 19.0262 16.9513C18.5058 17.0344 18.025 17.2797 17.6524 17.6524C17.2797 18.025 17.0344 18.5058 16.9513 19.0262C16.8683 19.5466 16.9519 20.0799 17.19 20.55C16.33 21.07 15.39 21.47 14.37 21.72C14.2033 21.2235 13.8849 20.7918 13.4596 20.486C13.0344 20.1802 12.5238 20.0157 12 20.0157C11.4762 20.0157 10.9657 20.1802 10.5404 20.486C10.1152 20.7918 9.79674 21.2235 9.63003 21.72C8.62003 21.47 7.67003 21.07 6.81003 20.55C7.0482 20.0799 7.13174 19.5466 7.04871 19.0262C6.96568 18.5058 6.72034 18.025 6.34771 17.6524C5.97508 17.2797 5.49423 17.0344 4.97383 16.9513C4.45344 16.8683 3.92011 16.9519 3.45003 17.19C2.91713 16.3159 2.52248 15.3647 2.28003 14.37C2.77658 14.2033 3.20823 13.8849 3.51403 13.4596C3.81984 13.0344 3.98435 12.5238 3.98435 12C3.98435 11.4762 3.81984 10.9657 3.51403 10.5404C3.20823 10.1152 2.77658 9.79674 2.28003 9.63003C2.53003 8.62003 2.93003 7.67003 3.45003 6.81003C3.92011 7.0482 4.45344 7.13174 4.97383 7.04871C5.49423 6.96568 5.97508 6.72034 6.34771 6.34771C6.72034 5.97508 6.96568 5.49423 7.04871 4.97383C7.13174 4.45344 7.0482 3.92011 6.81003 3.45003H6.80003ZM12 16C13.0609 16 14.0783 15.5786 14.8285 14.8285C15.5786 14.0783 16 13.0609 16 12C16 10.9392 15.5786 9.92175 14.8285 9.1716C14.0783 8.42146 13.0609 8.00003 12 8.00003C10.9392 8.00003 9.92175 8.42146 9.1716 9.1716C8.42146 9.92175 8.00003 10.9392 8.00003 12C8.00003 13.0609 8.42146 14.0783 9.1716 14.8285C9.92175 15.5786 10.9392 16 12 16Z" fill="#A5B3BB"/>
<path d="M12 14C13.1046 14 14 13.1046 14 12C14 10.8954 13.1046 10 12 10C10.8954 10 10 10.8954 10 12C10 13.1046 10.8954 14 12 14Z" fill="black"/>
</svg>
