<svg width="24" height="24" viewBox="0 0 24 24" fill="none" xmlns="http://www.w3.org/2000/svg"><path fill-rule="evenodd" clip-rule="evenodd" d="M14.886 2.45242C13.3144 1.91205 11.6119 1.85437 10.0062 2.28676C8.40036 2.71919 6.96489 3.62212 5.89506 4.87827C4.82495 6.13475 4.17259 7.68401 4.02975 9.31822C3.8869 10.9525 4.26093 12.5888 5.09889 14.0061C5.93663 15.4232 7.19664 16.5517 8.70588 17.2438C10.1496 17.906 11.7575 18.1396 13.3314 17.9196L11.419 20.5378C11.2989 20.7643 11.2684 21.0246 11.3329 21.2709C11.3975 21.5172 11.5529 21.733 11.7706 21.8787C11.9883 22.0243 12.2536 22.09 12.5179 22.0638C12.7822 22.0375 13.0278 21.921 13.2094 21.7357L16.7913 16.8478C16.9546 16.6201 17.018 16.3402 16.9679 16.0683C16.9177 15.7964 16.7579 15.5541 16.5229 15.3935L11.4075 11.9709C11.1704 11.8562 10.898 11.827 10.6403 11.8887C10.3825 11.9504 10.1567 12.0989 10.0043 12.3068C9.85184 12.5148 9.78305 12.7684 9.81053 13.0209C9.83801 13.2735 9.9599 13.5081 10.1538 13.6817L10.143 13.6835L13.4611 15.9036C13.3812 15.8972 13.2993 15.9004 13.2167 15.9141C11.9677 16.1217 10.6841 15.9508 9.53961 15.4259C8.39536 14.9011 7.44765 14.0491 6.82052 12.9883C6.1936 11.9279 5.91589 10.7081 6.02215 9.49236C6.12842 8.27656 6.61405 7.11864 7.41768 6.17504C8.2216 5.23111 9.30571 4.54664 10.5262 4.21796C11.747 3.88924 13.0419 3.93327 14.2357 4.34374C15.4293 4.75413 16.4612 5.5099 17.1952 6.50513C17.5231 6.94959 18.1491 7.04413 18.5936 6.7163C19.0381 6.38847 19.1326 5.7624 18.8048 5.31794C17.8263 3.99141 16.4578 2.99285 14.886 2.45242Z" fill="black"/></svg>
