<svg xmlns="http://www.w3.org/2000/svg" width="24" height="24" fill="none">
  <path fill="#000" fill-rule="evenodd" d="M16.4986 3.18598c-1.4539-.80507-3.1205-1.15751-4.7769-1.01051-1.6566.14701-3.22702.78695-4.49873 1.83824C5.95093 5.06528 5.03946 6.47773 4.61501 8.0623c-.42447 1.58465-.34026 3.261.23885 4.8023.57894 1.5411 1.62385 2.8712 2.98998 3.8149 1.30679.9028 2.84966 1.4121 4.43786 1.4687l-2.33796 2.2464c-.15761.2022-.23284.4532-.21209.707.02085.2538.13641.4933.32555.6745.1891.1812.4389.292.7038.3121.2648.02.5269-.0521.7379-.203l4.3763-4.1917c.2003-.1959.3114-.4605.3093-.737-.0023-.2765-.1176-.5428-.3211-.7418L11.42 11.9558c-.2135-.1541-.4767-.2302-.7412-.2142-.2646.016-.5128.1231-.69897.3014-.18626.1783-.29804.4161-.31483.6696-.0168.2535.0625.5057.22331.7103l-.01095-.0001 2.88214 2.7626c-.0775-.0202-.1587-.0313-.2425-.0321-1.266-.0125-2.5005-.4037-3.53643-1.1193-1.03573-.7156-1.82109-1.7192-2.25449-2.8728-.43326-1.1531-.49494-2.40261-.17918-3.58142.31578-1.17888.9951-2.23488 1.95038-3.0246.95561-.78999 2.14212-1.2758 3.40112-1.38755 1.2593-.11174 2.5269.15648 3.6313.76801C16.591 5.52331 17.25 5.5 17.5 5c.5-1-.1396-1.33678-1.0014-1.81402z" clip-rule="evenodd"/>
</svg>