<svg width="32" height="32" viewBox="0 0 32 32" fill="none" xmlns="http://www.w3.org/2000/svg">
<path d="M11.4701 20.5301L6.94025 16L2.41016 20.5301V27.1994C2.41016 28.5196 3.48041 29.5898 4.8006 29.5898H11.4701L16 25.06L11.4701 20.5301Z" fill="#FF0000"/>
<path d="M4.59766 27.1994V20.5299L8.034 17.0938L6.94025 16L2.41016 20.5299V27.1994C2.41016 28.5196 3.48041 29.5898 4.8006 29.5898H6.9881C5.66791 29.5898 4.59766 28.5196 4.59766 27.1994Z" fill="#CE2F2F"/>
<path d="M20.5301 20.5301L25.06 16L29.5898 20.5299V27.1994C29.5898 28.5196 28.5196 29.5898 27.1994 29.5898H20.5301L16 25.06L20.5301 20.5301Z" fill="#3D81F6"/>
<path d="M27.1994 2.41016H20.5301L16 6.94025L20.5299 11.4701L25.06 16L29.5898 11.4701V4.8006C29.5898 3.48041 28.5196 2.41016 27.1994 2.41016Z" fill="#FF0000"/>
<path d="M15.9998 25.06L6.94003 16.0002L15.9998 6.94049L25.0595 16.0002L15.9998 25.06Z" fill="white"/>
<path d="M20.5299 11.47H29.5896V20.5299H20.5299V11.47Z" fill="#FF6C00"/>
<path d="M11.4701 2.41016H4.8006C3.48041 2.41016 2.41016 3.48041 2.41016 4.8006V11.4701L6.94025 16L16 6.94025L11.4701 2.41016Z" fill="#3D81F6"/>
<path d="M4.59766 11.4701V4.8006C4.59766 3.48041 5.66791 2.41016 6.9881 2.41016H4.8006C3.48041 2.41016 2.41016 3.48041 2.41016 4.8006V11.4701L6.94025 16L8.034 14.9062L4.59766 11.4701Z" fill="#638DD5"/>
<path d="M11.4702 2.41016H20.5302V11.4701H11.4702V2.41016Z" fill="#FDCC09"/>
<path d="M11.4702 20.53H20.5302V29.5898H11.4702V20.53Z" fill="#FDCC09"/>
<path d="M2.41016 11.47H11.4701V20.5299H2.41016V11.47Z" fill="#009D54"/>
<path d="M2.41016 11.47H4.59766V20.5299H2.41016V11.47Z" fill="#0E8D52"/>
<path d="M30 27.1994V25.5267C30 25.3003 29.8163 25.1166 29.5898 25.1166C29.3634 25.1166 29.1797 25.3003 29.1797 25.5267V27.1994C29.1797 28.2914 28.2914 29.1797 27.1994 29.1797H20.94V20.9402H29.1797V23.8861C29.1797 24.1128 29.3634 24.2963 29.5898 24.2963C29.8163 24.2963 30 24.1128 30 23.8861V4.8006C30 3.25632 28.7437 2 27.1994 2H4.8006C3.25632 2 2 3.25632 2 4.8006V6.4408C2 6.66745 2.18372 6.85095 2.41016 6.85095C2.6366 6.85095 2.82031 6.66745 2.82031 6.4408V4.8006C2.82031 3.70856 3.70877 2.82031 4.8006 2.82031H11.0598V11.06H2.82031V8.08142C2.82031 7.85498 2.6366 7.67126 2.41016 7.67126C2.18372 7.67126 2 7.85498 2 8.08142V27.1994C2 28.7437 3.25632 30 4.8006 30H27.1994C28.7437 30 30 28.7437 30 27.1994ZM11.8803 11.8803H20.1199V20.1199H11.8803V11.8803ZM29.1797 20.1197H20.94V11.8803H29.1797V20.1197ZM29.1797 4.8006V11.06H20.94V2.82031H27.1994C28.2914 2.82031 29.1797 3.70856 29.1797 4.8006ZM11.8803 2.82031H20.1199V11.06H11.8803V2.82031ZM11.06 11.8803V20.1199H2.82031V11.8803H11.06ZM2.82031 27.1994V20.9402H11.06V29.1797H4.8006C3.70856 29.1797 2.82031 28.2914 2.82031 27.1994ZM11.8803 20.9402H20.1199V29.1797H11.8803V20.9402Z" fill="black"/>
<path d="M9.02979 16.7043C9.25623 16.7043 9.43994 16.5206 9.43994 16.2941V15.0325C9.43994 14.806 9.25623 14.6223 9.02979 14.6223C8.80313 14.6223 8.61963 14.806 8.61963 15.0325V16.2941C8.61963 16.5206 8.80313 16.7043 9.02979 16.7043Z" fill="black"/>
<path d="M22.9702 16.7043C23.1969 16.7043 23.3804 16.5206 23.3804 16.2941V15.0325C23.3804 14.806 23.1969 14.6223 22.9702 14.6223C22.7438 14.6223 22.5601 14.806 22.5601 15.0325V16.2941C22.5601 16.5206 22.7438 16.7043 22.9702 16.7043Z" fill="black"/>
<path d="M17.5828 15.9876C17.4121 15.8385 17.1532 15.8558 17.0039 16.0265C16.7591 16.3066 16.3931 16.4672 15.9996 16.4672C15.6062 16.4672 15.2402 16.3066 14.9952 16.0265C14.8461 15.856 14.587 15.8385 14.4165 15.9876C14.246 16.1367 14.2285 16.3959 14.3776 16.5663C14.7784 17.0248 15.3695 17.2877 15.9996 17.2877C16.6298 17.2877 17.2209 17.0248 17.6217 16.5663C17.7708 16.3959 17.7533 16.1367 17.5828 15.9876Z" fill="black"/>
</svg>
