<svg width="24" height="24" viewBox="0 0 24 24" fill="none" xmlns="http://www.w3.org/2000/svg">
<path d="M8.76437 15.2358L5.52875 12L2.29297 15.2358V19.9996C2.29297 20.9426 3.05743 21.707 4.00043 21.707H8.76437L12 18.4714L8.76437 15.2358Z" fill="#FF6881"/>
<path d="M3.85547 19.9996V15.2356L6.31 12.7812L5.52875 12L2.29297 15.2356V19.9996C2.29297 20.9426 3.05743 21.707 4.00043 21.707H5.56293C4.61993 21.707 3.85547 20.9426 3.85547 19.9996V19.9996Z" fill="#DE4B64"/>
<path d="M15.2358 15.2358L18.4714 12L21.707 15.2356V19.9996C21.707 20.9426 20.9426 21.707 19.9996 21.707H15.2358L12 18.4714L15.2358 15.2358Z" fill="#91DAFF"/>
<path d="M19.9996 2.29297H15.2358L12 5.52875L15.2356 8.76437L18.4714 12L21.707 8.76437V4.00043C21.707 3.05743 20.9426 2.29297 19.9996 2.29297Z" fill="#FF6881"/>
<path d="M11.9998 18.4714L5.52856 12.0002L11.9998 5.52893L18.4711 12.0002L11.9998 18.4714Z" fill="#ECECEE"/>
<path d="M15.2356 8.76428H21.7068V15.2357H15.2356V8.76428Z" fill="#FFB258"/>
<path d="M8.76437 2.29297H4.00043C3.05743 2.29297 2.29297 3.05743 2.29297 4.00043V8.76437L5.52875 12L12 5.52875L8.76437 2.29297Z" fill="#91DAFF"/>
<path d="M3.85547 8.76437V4.00043C3.85547 3.05743 4.61993 2.29297 5.56293 2.29297H4.00043C3.05743 2.29297 2.29297 3.05743 2.29297 4.00043V8.76437L5.52875 12L6.31 11.2188L3.85547 8.76437Z" fill="#4D9AE8"/>
<path d="M8.7644 2.29297H15.2358V8.76437H8.7644V2.29297Z" fill="#F9DA60"/>
<path d="M8.7644 15.2357H15.2358V21.707H8.7644V15.2357Z" fill="#F9DA60"/>
<path d="M2.29297 8.76428H8.76437V15.2357H2.29297V8.76428Z" fill="#4CB4A4"/>
<path d="M2.29297 8.76428H3.85547V15.2357H2.29297V8.76428Z" fill="#239674"/>
<path d="M22 19.9996V18.8048C22 18.6431 21.8688 18.5118 21.707 18.5118C21.5453 18.5118 21.4141 18.6431 21.4141 18.8048V19.9996C21.4141 20.7796 20.7796 21.4141 19.9996 21.4141H15.5286V15.5287H21.4141V17.6329C21.4141 17.7948 21.5453 17.9259 21.707 17.9259C21.8688 17.9259 22 17.7948 22 17.6329V4.00043C22 2.89737 21.1026 2 19.9996 2H4.00043C2.89737 2 2 2.89737 2 4.00043V5.172C2 5.33389 2.13123 5.46497 2.29297 5.46497C2.45471 5.46497 2.58594 5.33389 2.58594 5.172V4.00043C2.58594 3.2204 3.22055 2.58594 4.00043 2.58594H8.47125V8.47141H2.58594V6.34387C2.58594 6.18213 2.45471 6.0509 2.29297 6.0509C2.13123 6.0509 2 6.18213 2 6.34387V19.9996C2 21.1026 2.89737 22 4.00043 22H19.9996C21.1026 22 22 21.1026 22 19.9996ZM9.05734 9.05734H14.9428V14.9428H9.05734V9.05734ZM21.4141 14.9427H15.5286V9.05734H21.4141V14.9427ZM21.4141 4.00043V8.47141H15.5286V2.58594H19.9996C20.7796 2.58594 21.4141 3.2204 21.4141 4.00043V4.00043ZM9.05734 2.58594H14.9428V8.47141H9.05734V2.58594ZM8.47141 9.05734V14.9428H2.58594V9.05734H8.47141ZM2.58594 19.9996V15.5287H8.47141V21.4141H4.00043C3.2204 21.4141 2.58594 20.7796 2.58594 19.9996ZM9.05734 15.5287H14.9428V21.4141H9.05734V15.5287Z" fill="black"/>
<path d="M7.02124 12.5031C7.18298 12.5031 7.31421 12.3718 7.31421 12.2101V11.3089C7.31421 11.1472 7.18298 11.0159 7.02124 11.0159C6.85934 11.0159 6.72827 11.1472 6.72827 11.3089V12.2101C6.72827 12.3718 6.85934 12.5031 7.02124 12.5031Z" fill="black"/>
<path d="M16.9788 12.5031C17.1407 12.5031 17.2717 12.3718 17.2717 12.2101V11.3089C17.2717 11.1472 17.1407 11.0159 16.9788 11.0159C16.817 11.0159 16.6858 11.1472 16.6858 11.3089V12.2101C16.6858 12.3718 16.817 12.5031 16.9788 12.5031Z" fill="black"/>
<path d="M13.1306 11.9912C13.0087 11.8847 12.8238 11.897 12.7171 12.019C12.5422 12.219 12.2808 12.3338 11.9998 12.3338C11.7187 12.3338 11.4573 12.219 11.2823 12.019C11.1758 11.8972 10.9907 11.8847 10.869 11.9912C10.7472 12.0977 10.7347 12.2828 10.8412 12.4046C11.1274 12.732 11.5496 12.9198 11.9998 12.9198C12.4499 12.9198 12.8721 12.732 13.1584 12.4046C13.2649 12.2828 13.2524 12.0977 13.1306 11.9912V11.9912Z" fill="black"/>
</svg>
